<svg aria-hidden="true" style="position: absolute; width: 0; height: 0; overflow: hidden;" version="1.1" xmlns="http://www.w3.org/2000/svg" xmlns:xlink="http://www.w3.org/1999/xlink">
<defs>
<symbol id="icon-cursor" viewBox="0 0 32 32">
<path d="M32 28l-14-14 6-6-24-8 8 23.996 6-6 14 14.004z"></path>
</symbol>
<symbol id="icon-expand" viewBox="0 0 32 32">
<path d="M32 30.5v-29c0-0.827-0.673-1.5-1.5-1.5h-29c-0.827 0-1.5 0.673-1.5 1.5v9c0 0.276 0.224 0.5 0.5 0.5s0.5-0.224 0.5-0.5v-9c0-0.276 0.225-0.5 0.5-0.5h29c0.275 0 0.5 0.224 0.5 0.5v29c0 0.276-0.225 0.5-0.5 0.5h-9c-0.276 0-0.5 0.224-0.5 0.5s0.224 0.5 0.5 0.5h9c0.827 0 1.5-0.673 1.5-1.5zM1.5 13c-0.827 0-1.5 0.673-1.5 1.5v16c0 0.827 0.673 1.5 1.5 1.5h16c0.827 0 1.5-0.673 1.5-1.5v-16.793l7-7v6.793c0 0.276 0.224 0.5 0.5 0.5s0.5-0.224 0.5-0.5v-8c0-0.276-0.224-0.5-0.5-0.5h-8c-0.276 0-0.5 0.224-0.5 0.5s0.224 0.5 0.5 0.5h6.792l-7 7h-16.792zM18 30.5c0 0.276-0.225 0.5-0.5 0.5h-16c-0.275 0-0.5-0.224-0.5-0.5v-16c0-0.276 0.225-0.5 0.5-0.5h16.5v16.5z"></path>
</symbol>
<symbol id="icon-document-edit" viewBox="0 0 32 32">
<path d="M26.443 12.15l-2.6-2.6-11.292 11.294 2.606 2.606 11.286-11.3zM27.15 11.443l1.729-1.731c0.39-0.39 0.387-1.025-0.005-1.416l-1.18-1.177c-0.393-0.392-1.025-0.395-1.417-0.003l-1.727 1.728 2.599 2.599zM11.904 21.611l-0.64 3.113 3.135-0.617-2.495-2.495zM22 18v10.003c0 1.107-0.894 1.997-1.997 1.997h-15.005c-1.107 0-1.997-0.899-1.997-2.007v-22.985c0-1.109 0.899-2.007 2.009-2.007h9.991v6.002c0 1.111 0.898 1.998 2.006 1.998h3.994l4.58-4.58c0.793-0.793 2.051-0.788 2.83-0.010l1.18 1.179c0.776 0.776 0.775 2.046-0.010 2.83l-7.58 7.58zM16 3v5.997c0 0.554 0.451 1.003 0.991 1.003h5.009l-6-7z"></path>
</symbol>
<symbol id="icon-eye-off" viewBox="0 0 24 24">
<path d="M10.128 5.214c0.651-0.152 1.296-0.221 1.86-0.214 1.758 0 3.309 0.559 4.658 1.393 1.119 0.692 2.089 1.567 2.894 2.448 0.644 0.705 1.175 1.405 1.585 2.001 0.327 0.475 0.57 0.874 0.733 1.155-0.546 0.953-1.16 1.821-1.778 2.542-0.359 0.419-0.311 1.051 0.108 1.41s1.051 0.311 1.41-0.108c0.818-0.954 1.611-2.112 2.283-3.37 0.148-0.279 0.163-0.618 0.013-0.919 0 0-0.396-0.789-1.12-1.843-0.451-0.656-1.038-1.432-1.757-2.218-0.894-0.979-2.004-1.987-3.319-2.8-1.595-0.985-3.506-1.691-5.686-1.691-0.734-0.009-1.54 0.079-2.34 0.266-0.538 0.126-0.872 0.664-0.746 1.202s0.664 0.872 1.202 0.746zM10.027 11.442l2.531 2.531c-0.182 0.061-0.372 0.094-0.563 0.101-0.513 0.018-1.030-0.159-1.434-0.536s-0.617-0.88-0.635-1.393c-0.008-0.238 0.025-0.476 0.101-0.704zM5.983 7.397l2.553 2.553c-0.434 0.691-0.636 1.484-0.608 2.266 0.036 1.022 0.463 2.033 1.271 2.785s1.846 1.107 2.868 1.071c0.692-0.024 1.379-0.228 1.984-0.608l2.322 2.322c-1.378 0.799-2.895 1.196-4.384 1.214-1.734 0-3.285-0.559-4.634-1.393-1.119-0.692-2.089-1.567-2.894-2.448-0.644-0.705-1.175-1.405-1.585-2.001-0.326-0.475-0.57-0.873-0.732-1.154 1.050-1.822 2.376-3.379 3.841-4.607zM0.293 1.707l4.271 4.271c-1.731 1.479-3.269 3.358-4.445 5.549-0.148 0.279-0.164 0.619-0.013 0.92 0 0 0.396 0.789 1.12 1.843 0.451 0.656 1.038 1.432 1.757 2.218 0.894 0.979 2.004 1.987 3.319 2.8 1.595 0.986 3.506 1.692 5.71 1.692 1.993-0.024 4.019-0.601 5.815-1.759l4.466 4.466c0.391 0.391 1.024 0.391 1.414 0s0.391-1.024 0-1.414l-8.876-8.876c-0.002-0.002-0.005-0.005-0.007-0.007l-4.209-4.21c-0.008-0.007-0.016-0.016-0.024-0.024l-8.884-8.883c-0.391-0.391-1.024-0.391-1.414 0s-0.391 1.024 0 1.414z"></path>
</symbol>
<symbol id="icon-eye" viewBox="0 0 24 24">
<path d="M0.106 11.553c-0.136 0.274-0.146 0.603 0 0.894 0 0 0.396 0.789 1.12 1.843 0.451 0.656 1.038 1.432 1.757 2.218 0.894 0.979 2.004 1.987 3.319 2.8 1.595 0.986 3.506 1.692 5.698 1.692s4.103-0.706 5.698-1.692c1.315-0.813 2.425-1.821 3.319-2.8 0.718-0.786 1.306-1.562 1.757-2.218 0.724-1.054 1.12-1.843 1.12-1.843 0.136-0.274 0.146-0.603 0-0.894 0 0-0.396-0.789-1.12-1.843-0.451-0.656-1.038-1.432-1.757-2.218-0.894-0.979-2.004-1.987-3.319-2.8-1.595-0.986-3.506-1.692-5.698-1.692s-4.103 0.706-5.698 1.692c-1.315 0.813-2.425 1.821-3.319 2.8-0.719 0.786-1.306 1.561-1.757 2.218-0.724 1.054-1.12 1.843-1.12 1.843zM2.14 12c0.163-0.281 0.407-0.681 0.734-1.158 0.41-0.596 0.94-1.296 1.585-2.001 0.805-0.881 1.775-1.756 2.894-2.448 1.35-0.834 2.901-1.393 4.647-1.393s3.297 0.559 4.646 1.393c1.119 0.692 2.089 1.567 2.894 2.448 0.644 0.705 1.175 1.405 1.585 2.001 0.328 0.477 0.572 0.876 0.734 1.158-0.163 0.281-0.407 0.681-0.734 1.158-0.41 0.596-0.94 1.296-1.585 2.001-0.805 0.881-1.775 1.756-2.894 2.448-1.349 0.834-2.9 1.393-4.646 1.393s-3.297-0.559-4.646-1.393c-1.119-0.692-2.089-1.567-2.894-2.448-0.644-0.705-1.175-1.405-1.585-2.001-0.328-0.477-0.572-0.877-0.735-1.158zM16 12c0-1.104-0.449-2.106-1.172-2.828s-1.724-1.172-2.828-1.172-2.106 0.449-2.828 1.172-1.172 1.724-1.172 2.828 0.449 2.106 1.172 2.828 1.724 1.172 2.828 1.172 2.106-0.449 2.828-1.172 1.172-1.724 1.172-2.828zM14 12c0 0.553-0.223 1.051-0.586 1.414s-0.861 0.586-1.414 0.586-1.051-0.223-1.414-0.586-0.586-0.861-0.586-1.414 0.223-1.051 0.586-1.414 0.861-0.586 1.414-0.586 1.051 0.223 1.414 0.586 0.586 0.861 0.586 1.414z"></path>
</symbol>
<symbol id="icon-move" viewBox="0 0 24 24">
<path d="M11 4.414v6.586h-6.586l1.293-1.293c0.391-0.391 0.391-1.024 0-1.414s-1.024-0.391-1.414 0l-3 3c-0.181 0.181-0.293 0.431-0.293 0.707 0 0.136 0.027 0.265 0.076 0.383s0.121 0.228 0.217 0.324l3 3c0.391 0.391 1.024 0.391 1.414 0s0.391-1.024 0-1.414l-1.293-1.293h6.586v6.586l-1.293-1.293c-0.391-0.391-1.024-0.391-1.414 0s-0.391 1.024 0 1.414l3 3c0.096 0.096 0.206 0.168 0.324 0.217s0.247 0.076 0.383 0.076c0.13 0 0.261-0.025 0.383-0.076 0.118-0.049 0.228-0.121 0.324-0.217l3-3c0.391-0.391 0.391-1.024 0-1.414s-1.024-0.391-1.414 0l-1.293 1.293v-6.586h6.586l-1.293 1.293c-0.391 0.391-0.391 1.024 0 1.414s1.024 0.391 1.414 0l3-3c0.096-0.096 0.168-0.206 0.217-0.324 0.15-0.362 0.078-0.795-0.217-1.090l-3-3c-0.391-0.391-1.024-0.391-1.414 0s-0.391 1.024 0 1.414l1.293 1.293h-6.586v-6.586l1.293 1.293c0.391 0.391 1.024 0.391 1.414 0s0.391-1.024 0-1.414l-3-3c-0.092-0.092-0.202-0.166-0.324-0.217-0.245-0.101-0.521-0.101-0.766 0-0.118 0.049-0.228 0.121-0.324 0.217l-3 3c-0.391 0.391-0.391 1.024 0 1.414s1.024 0.391 1.414 0z"></path>
</symbol>
<symbol id="icon-download" viewBox="0 0 24 24">
<path d="M20 15v4c0 0.276-0.111 0.525-0.293 0.707s-0.431 0.293-0.707 0.293h-14c-0.276 0-0.525-0.111-0.707-0.293s-0.293-0.431-0.293-0.707v-4c0-0.552-0.448-1-1-1s-1 0.448-1 1v4c0 0.828 0.337 1.58 0.879 2.121s1.293 0.879 2.121 0.879h14c0.828 0 1.58-0.337 2.121-0.879s0.879-1.293 0.879-2.121v-4c0-0.552-0.448-1-1-1s-1 0.448-1 1zM13 12.586v-9.586c0-0.552-0.448-1-1-1s-1 0.448-1 1v9.586l-3.293-3.293c-0.391-0.391-1.024-0.391-1.414 0s-0.391 1.024 0 1.414l5 5c0.092 0.092 0.202 0.166 0.324 0.217s0.253 0.076 0.383 0.076c0.256 0 0.512-0.098 0.707-0.293l5-5c0.391-0.391 0.391-1.024 0-1.414s-1.024-0.391-1.414 0z"></path>
</symbol>
<symbol id="icon-error" viewBox="0 0 24 24">
<path d="M12.984 12.984v-6h-1.969v6h1.969zM12.984 17.016v-2.016h-1.969v2.016h1.969zM12 2.016q4.125 0 7.055 2.93t2.93 7.055-2.93 7.055-7.055 2.93-7.055-2.93-2.93-7.055 2.93-7.055 7.055-2.93z"></path>
</symbol>
<symbol id="icon-add" viewBox="0 0 24 24">
<path d="M18.984 12.984h-6v6h-1.969v-6h-6v-1.969h6v-6h1.969v6h6v1.969z"></path>
</symbol>
<symbol id="icon-create" viewBox="0 0 24 24">
<path d="M20.719 7.031l-1.828 1.828-3.75-3.75 1.828-1.828q0.281-0.281 0.703-0.281t0.703 0.281l2.344 2.344q0.281 0.281 0.281 0.703t-0.281 0.703zM3 17.25l11.063-11.063 3.75 3.75-11.063 11.063h-3.75v-3.75z"></path>
</symbol>
<symbol id="icon-remove" viewBox="0 0 24 24">
<path d="M18.984 12.984h-13.969v-1.969h13.969v1.969z"></path>
</symbol>
<symbol id="icon-format_shapes" viewBox="0 0 24 24">
<path d="M10.688 12.75h2.625l-1.313-3.844zM13.734 14.016h-3.516l-0.703 1.969h-1.641l3.422-9h1.406l3.375 9h-1.594zM18.984 5.016h2.016v-2.016h-2.016v2.016zM21 21v-2.016h-2.016v2.016h2.016zM17.016 18.984v-1.969h1.969v-10.031h-1.969v-1.969h-10.031v1.969h-1.969v10.031h1.969v1.969h10.031zM5.016 21v-2.016h-2.016v2.016h2.016zM3 3v2.016h2.016v-2.016h-2.016zM23.016 6.984h-2.016v10.031h2.016v6h-6v-2.016h-10.031v2.016h-6v-6h2.016v-10.031h-2.016v-6h6v2.016h10.031v-2.016h6v6z"></path>
</symbol>
<symbol id="icon-text_fields" viewBox="0 0 24 24">
<path d="M21.516 9v3h-3v6.984h-3v-6.984h-3v-3h9zM2.484 3.984h13.031v3h-5.016v12h-3v-12h-5.016v-3z"></path>
</symbol>
<symbol id="icon-color_lens" viewBox="0 0 24 24">
<path d="M17.484 12q0.609 0 1.055-0.422t0.445-1.078-0.445-1.078-1.055-0.422-1.055 0.422-0.445 1.078 0.445 1.078 1.055 0.422zM14.484 8.016q0.609 0 1.055-0.445t0.445-1.055-0.445-1.055-1.055-0.445-1.055 0.445-0.445 1.055 0.445 1.055 1.055 0.445zM9.516 8.016q0.609 0 1.055-0.445t0.445-1.055-0.445-1.055-1.055-0.445-1.055 0.445-0.445 1.055 0.445 1.055 1.055 0.445zM6.516 12q0.609 0 1.055-0.422t0.445-1.078-0.445-1.078-1.055-0.422-1.055 0.422-0.445 1.078 0.445 1.078 1.055 0.422zM12 3q3.703 0 6.352 2.344t2.648 5.672q0 2.063-1.477 3.516t-3.539 1.453h-1.734q-0.656 0-1.078 0.445t-0.422 1.055q0 0.516 0.375 0.984t0.375 1.031q0 0.656-0.422 1.078t-1.078 0.422q-3.75 0-6.375-2.625t-2.625-6.375 2.625-6.375 6.375-2.625z"></path>
</symbol>
<symbol id="icon-arrow_drop_down" viewBox="0 0 24 24">
<path d="M6.984 9.984h10.031l-5.016 5.016z"></path>
</symbol>
<symbol id="icon-arrow_drop_up" viewBox="0 0 24 24">
<path d="M6.984 14.016l5.016-5.016 5.016 5.016h-10.031z"></path>
</symbol>
<symbol id="icon-arrow_left" viewBox="0 0 24 24">
<path d="M14.016 6.984v10.031l-5.016-5.016z"></path>
</symbol>
<symbol id="icon-arrow_right" viewBox="0 0 24 24">
<path d="M9.984 17.016v-10.031l5.016 5.016z"></path>
</symbol>
<symbol id="icon-home" viewBox="0 0 24 24">
<path d="M9.984 20.016h-4.969v-8.016h-3l9.984-9 9.984 9h-3v8.016h-4.969v-6h-4.031v6z"></path>
</symbol>
<symbol id="icon-lock_open" viewBox="0 0 24 24">
<path d="M18 20.016v-10.031h-12v10.031h12zM18 8.016q0.797 0 1.406 0.586t0.609 1.383v10.031q0 0.797-0.609 1.383t-1.406 0.586h-12q-0.797 0-1.406-0.586t-0.609-1.383v-10.031q0-0.797 0.609-1.383t1.406-0.586h9.094v-2.016q0-1.266-0.914-2.18t-2.18-0.914-2.18 0.914-0.914 2.18h-1.922q0-2.063 1.477-3.539t3.539-1.477 3.539 1.477 1.477 3.539v2.016h0.984zM12 17.016q-0.797 0-1.406-0.609t-0.609-1.406 0.609-1.406 1.406-0.609 1.406 0.609 0.609 1.406-0.609 1.406-1.406 0.609z"></path>
</symbol>
<symbol id="icon-lock_outline" viewBox="0 0 24 24">
<path d="M18 20.016v-10.031h-12v10.031h12zM8.906 6v2.016h6.188v-2.016q0-1.266-0.914-2.18t-2.18-0.914-2.18 0.914-0.914 2.18zM18 8.016q0.797 0 1.406 0.586t0.609 1.383v10.031q0 0.797-0.609 1.383t-1.406 0.586h-12q-0.797 0-1.406-0.586t-0.609-1.383v-10.031q0-0.797 0.609-1.383t1.406-0.586h0.984v-2.016q0-2.063 1.477-3.539t3.539-1.477 3.539 1.477 1.477 3.539v2.016h0.984zM12 17.016q-0.797 0-1.406-0.609t-0.609-1.406 0.609-1.406 1.406-0.609 1.406 0.609 0.609 1.406-0.609 1.406-1.406 0.609z"></path>
</symbol>
<symbol id="icon-close_fullscreen" viewBox="0 0 24 24">
<path d="M21.984 3.422l-5.297 5.297 3.328 3.281h-8.016v-8.016l3.281 3.328 5.297-5.297zM3.422 21.984l5.297-5.297 3.281 3.328v-8.016h-8.016l3.328 3.281-5.297 5.297z"></path>
</symbol>
<symbol id="icon-open_in_full" viewBox="0 0 24 24">
<path d="M21 11.016v-8.016h-8.016l3.328 3.281-10.031 10.031-3.281-3.328v8.016h8.016l-3.328-3.281 10.031-10.031z"></path>
</symbol>
<symbol id="icon-person_add_alt" viewBox="0 0 24 24">
<path d="M12.984 8.016q0-1.125-0.539-2.039t-1.43-1.453-2.016-0.539-2.016 0.539-1.43 1.453-0.539 2.039q0 1.078 0.539 1.992t1.43 1.453 2.016 0.539 2.016-0.539 1.43-1.453 0.539-1.992zM11.016 8.016q0 0.797-0.586 1.383t-1.43 0.586-1.43-0.586-0.586-1.383q0-0.844 0.586-1.43t1.43-0.586 1.43 0.586 0.586 1.43zM0.984 18v2.016h16.031v-2.016q0-0.797-0.563-1.43t-1.477-1.125-1.992-0.797-2.133-0.469-1.852-0.164-1.852 0.164-2.133 0.469-1.992 0.797-1.477 1.125-0.563 1.43zM3 18q0.094-0.281 0.633-0.609t1.43-0.656 1.898-0.539 2.039-0.211 2.039 0.211 1.875 0.539 1.43 0.656 0.656 0.609h-12zM20.016 15v-3h3v-2.016h-3v-3h-2.016v3h-3v2.016h3v3h2.016z"></path>
</symbol>
<symbol id="icon-undo" viewBox="0 0 24 24">
<path d="M12.516 8.016q3.422 0 6.141 2.016t3.797 5.203l-2.344 0.75q-0.797-2.438-2.883-3.961t-4.711-1.523q-2.906 0-5.156 1.875l3.656 3.609h-9v-9l3.563 3.609q2.953-2.578 6.938-2.578z"></path>
</symbol>
<symbol id="icon-direction" viewBox="0 0 20 20">
<path d="M18.060 1.941c-0.586-0.586-1.144-0.033-3.041 0.879-5.075 2.439-13.919 7.396-13.919 7.396l7.599 1.084 1.085 7.599c0 0 4.958-8.843 7.396-13.916 0.912-1.898 1.465-2.456 0.88-3.042zM16.236 3.896l-5.519 10.247-0.561-4.655 6.080-5.592z"></path>
</symbol>
<symbol id="icon-eraser" viewBox="0 0 20 20">
<path d="M16.998 4.18l-3.154-2.425c-0.872-0.671-2.135-0.506-2.807 0.365l-8.4 10.897c-0.671 0.871-0.507 2.132 0.365 2.803l3.153 2.425c0.872 0.671 2.135 0.506 2.807-0.365l8.401-10.897c0.671-0.871 0.507-2.132-0.365-2.803zM8.548 16.467l-0.537 0.681c-0.152 0.197-0.385 0.31-0.639 0.31-0.124 0-0.309-0.029-0.485-0.164l-3.153-2.425c-0.168-0.129-0.275-0.317-0.303-0.53s0.028-0.422 0.157-0.589l0.537-0.681c0.152-0.197 0.385-0.311 0.64-0.311 0.124 0 0.309 0.029 0.485 0.164l3.154 2.425c0.168 0.129 0.275 0.317 0.303 0.53 0.026 0.213-0.030 0.422-0.159 0.59z"></path>
</symbol>
</defs>
</svg>
